<svg viewBox="0 0 46 46" fill="none" xmlns="http://www.w3.org/2000/svg">
<g id="Mask group">
<mask id="mask0_4843_4536" style="mask-type:alpha" maskUnits="userSpaceOnUse" x="0" y="0" width="46" height="46">
<circle id="Ellipse 62" cx="23" cy="23" r="23" fill="#EBECEE"/>
</mask>
<g mask="url(#mask0_4843_4536)">
<circle id="Ellipse 63" cx="23" cy="23" r="23" fill="#F5F5F6"/>
<path id="Vector" d="M31.5 46.5C31.5 46.5 29.7 49.7769 22.5 49.7769C15.3 49.7769 13.5 46.5 13.5 46.5V38.4048C13.5 36.8677 14.0926 35.3935 15.1475 34.3066C16.2024 33.2197 17.6332 32.609 19.125 32.609H25.875C27.3668 32.609 28.7976 33.2197 29.8525 34.3066C30.9074 35.3935 31.5 36.8677 31.5 38.4048V46.5ZM22.68 28.9099C21.7936 28.9099 20.9158 28.73 20.0969 28.3805C19.2779 28.031 18.5338 27.5187 17.907 26.8729C17.2802 26.227 16.783 25.4603 16.4438 24.6165C16.1046 23.7727 15.93 22.8683 15.93 21.955C15.93 21.0416 16.1046 20.1372 16.4438 19.2934C16.783 18.4496 17.2802 17.6829 17.907 17.0371C18.5338 16.3912 19.2779 15.8789 20.0969 15.5294C20.9158 15.1799 21.7936 15 22.68 15C24.4702 15 26.1871 15.7328 27.453 17.0371C28.7188 18.3414 29.43 20.1104 29.43 21.955C29.43 23.7995 28.7188 25.5685 27.453 26.8729C26.1871 28.1772 24.4702 28.9099 22.68 28.9099Z" fill="white"/>
<path id="Vector_2" d="M33.5 47.5H30.875V39.2683C30.875 38.1816 30.4602 37.1393 29.7217 36.3709C28.9833 35.6024 27.9818 35.1707 26.9375 35.1707H19.0625C18.0182 35.1707 17.0167 35.6024 16.2783 36.3709C15.5398 37.1393 15.125 38.1816 15.125 39.2683V47.5H12.5V39.2683C12.5 37.4571 13.1914 35.72 14.4221 34.4393C15.6528 33.1585 17.322 32.439 19.0625 32.439H26.9375C28.678 32.439 30.3472 33.1585 31.5779 34.4393C32.8086 35.72 33.5 37.4571 33.5 39.2683V47.5ZM23 30.3902C21.9658 30.3902 20.9418 30.1783 19.9864 29.7664C19.0309 29.3546 18.1628 28.7509 17.4315 27.9899C16.7003 27.229 16.1202 26.3255 15.7244 25.3313C15.3287 24.337 15.125 23.2713 15.125 22.1951C15.125 21.1189 15.3287 20.0533 15.7244 19.059C16.1202 18.0647 16.7003 17.1613 17.4315 16.4003C18.1628 15.6393 19.0309 15.0357 19.9864 14.6238C20.9418 14.212 21.9658 14 23 14C25.0886 14 27.0916 14.8634 28.5685 16.4003C30.0453 17.9372 30.875 20.0216 30.875 22.1951C30.875 24.3686 30.0453 26.4531 28.5685 27.9899C27.0916 29.5268 25.0886 30.3902 23 30.3902ZM23 27.6585C24.3924 27.6585 25.7277 27.0829 26.7123 26.0583C27.6969 25.0338 28.25 23.6441 28.25 22.1951C28.25 20.7461 27.6969 19.3565 26.7123 18.3319C25.7277 17.3073 24.3924 16.7317 23 16.7317C21.6076 16.7317 20.2723 17.3073 19.2877 18.3319C18.3031 19.3565 17.75 20.7461 17.75 22.1951C17.75 23.6441 18.3031 25.0338 19.2877 26.0583C20.2723 27.0829 21.6076 27.6585 23 27.6585Z" fill="#3689FF"/>
</g>
</g>
</svg>
