<svg width="20" height="21" viewBox="0 0 20 21" fill="none" xmlns="http://www.w3.org/2000/svg">
<path d="M6.6665 10.4997C6.6665 10.7207 6.7543 10.9326 6.91058 11.0889C7.06686 11.2452 7.27882 11.333 7.49984 11.333H12.4998C12.7209 11.333 12.9328 11.2452 13.0891 11.0889C13.2454 10.9326 13.3332 10.7207 13.3332 10.4997C13.3332 10.2787 13.2454 10.0667 13.0891 9.91042C12.9328 9.75414 12.7209 9.66634 12.4998 9.66634H7.49984C7.27882 9.66634 7.06686 9.75414 6.91058 9.91042C6.7543 10.0667 6.6665 10.2787 6.6665 10.4997ZM8.33317 12.9997H5.83317C5.17013 12.9997 4.53424 12.7363 4.0654 12.2674C3.59656 11.7986 3.33317 11.1627 3.33317 10.4997C3.33317 9.83663 3.59656 9.20075 4.0654 8.73191C4.53424 8.26307 5.17013 7.99967 5.83317 7.99967H8.33317C8.55418 7.99967 8.76615 7.91188 8.92243 7.7556C9.07871 7.59932 9.1665 7.38735 9.1665 7.16634C9.1665 6.94533 9.07871 6.73337 8.92243 6.57709C8.76615 6.42081 8.55418 6.33301 8.33317 6.33301H5.83317C4.7281 6.33301 3.66829 6.77199 2.88689 7.5534C2.10549 8.3348 1.6665 9.39461 1.6665 10.4997C1.6665 11.6047 2.10549 12.6646 2.88689 13.446C3.66829 14.2274 4.7281 14.6663 5.83317 14.6663H8.33317C8.55418 14.6663 8.76615 14.5785 8.92243 14.4223C9.07871 14.266 9.1665 14.054 9.1665 13.833C9.1665 13.612 9.07871 13.4 8.92243 13.2438C8.76615 13.0875 8.55418 12.9997 8.33317 12.9997ZM14.1665 6.33301H11.6665C11.4455 6.33301 11.2335 6.42081 11.0772 6.57709C10.921 6.73337 10.8332 6.94533 10.8332 7.16634C10.8332 7.38735 10.921 7.59932 11.0772 7.7556C11.2335 7.91188 11.4455 7.99967 11.6665 7.99967H14.1665C14.8295 7.99967 15.4654 8.26307 15.9343 8.73191C16.4031 9.20075 16.6665 9.83663 16.6665 10.4997C16.6665 11.1627 16.4031 11.7986 15.9343 12.2674C15.4654 12.7363 14.8295 12.9997 14.1665 12.9997H11.6665C11.4455 12.9997 11.2335 13.0875 11.0772 13.2438C10.921 13.4 10.8332 13.612 10.8332 13.833C10.8332 14.054 10.921 14.266 11.0772 14.4223C11.2335 14.5785 11.4455 14.6663 11.6665 14.6663H14.1665C15.2716 14.6663 16.3314 14.2274 17.1128 13.446C17.8942 12.6646 18.3332 11.6047 18.3332 10.4997C18.3332 9.39461 17.8942 8.3348 17.1128 7.5534C16.3314 6.77199 15.2716 6.33301 14.1665 6.33301Z" fill="#212223"/>
</svg>
