<svg width="20" height="15" viewBox="0 0 20 15" fill="none" xmlns="http://www.w3.org/2000/svg">
<path d="M10.2502 7.68366C10.6948 7.29877 11.0515 6.82273 11.2959 6.28785C11.5403 5.75296 11.6668 5.17175 11.6668 4.58366C11.6668 3.47859 11.2278 2.41878 10.4464 1.63738C9.66504 0.855979 8.60523 0.416992 7.50016 0.416992C6.39509 0.416992 5.33529 0.855979 4.55388 1.63738C3.77248 2.41878 3.3335 3.47859 3.3335 4.58366C3.33349 5.17175 3.46 5.75296 3.70443 6.28785C3.94887 6.82273 4.30551 7.29877 4.75016 7.68366C3.58361 8.2119 2.59388 9.06493 1.89931 10.1408C1.20474 11.2166 0.834723 12.4698 0.833496 13.7503C0.833496 13.9713 0.921293 14.1833 1.07757 14.3396C1.23385 14.4959 1.44582 14.5837 1.66683 14.5837C1.88784 14.5837 2.0998 14.4959 2.25609 14.3396C2.41237 14.1833 2.50016 13.9713 2.50016 13.7503C2.50016 12.4242 3.02695 11.1525 3.96463 10.2148C4.90231 9.27711 6.17408 8.75033 7.50016 8.75033C8.82625 8.75033 10.098 9.27711 11.0357 10.2148C11.9734 11.1525 12.5002 12.4242 12.5002 13.7503C12.5002 13.9713 12.588 14.1833 12.7442 14.3396C12.9005 14.4959 13.1125 14.5837 13.3335 14.5837C13.5545 14.5837 13.7665 14.4959 13.9228 14.3396C14.079 14.1833 14.1668 13.9713 14.1668 13.7503C14.1656 12.4698 13.7956 11.2166 13.101 10.1408C12.4064 9.06493 11.4167 8.2119 10.2502 7.68366ZM7.50016 7.08366C7.00571 7.08366 6.52236 6.93704 6.11124 6.66233C5.70011 6.38763 5.37968 5.99718 5.19046 5.54037C5.00124 5.08355 4.95174 4.58089 5.0482 4.09593C5.14466 3.61098 5.38276 3.16552 5.7324 2.81589C6.08203 2.46626 6.52748 2.22816 7.01244 2.1317C7.49739 2.03523 8.00006 2.08474 8.45687 2.27396C8.91369 2.46318 9.30413 2.78361 9.57884 3.19473C9.85354 3.60586 10.0002 4.08921 10.0002 4.58366C10.0002 5.2467 9.73677 5.88259 9.26793 6.35143C8.79909 6.82027 8.1632 7.08366 7.50016 7.08366ZM15.6168 7.35033C16.1501 6.74977 16.4985 6.00787 16.62 5.21394C16.7415 4.42001 16.6309 3.60789 16.3016 2.87533C15.9723 2.14276 15.4383 1.52099 14.7639 1.08484C14.0895 0.648701 13.3033 0.416778 12.5002 0.416992C12.2791 0.416992 12.0672 0.50479 11.9109 0.66107C11.7546 0.81735 11.6668 1.02931 11.6668 1.25033C11.6668 1.47134 11.7546 1.6833 11.9109 1.83958C12.0672 1.99586 12.2791 2.08366 12.5002 2.08366C13.1632 2.08366 13.7991 2.34705 14.2679 2.81589C14.7368 3.28473 15.0002 3.92062 15.0002 4.58366C14.999 5.02136 14.8829 5.45108 14.6635 5.82984C14.4442 6.20861 14.1292 6.52314 13.7502 6.74199C13.6266 6.81326 13.5234 6.91505 13.4505 7.03761C13.3775 7.16017 13.3372 7.29941 13.3335 7.44199C13.33 7.58346 13.3626 7.72349 13.4282 7.84887C13.4938 7.97426 13.5903 8.08087 13.7085 8.15866L14.0335 8.37533L14.1418 8.43366C15.1463 8.91009 15.9938 9.66365 16.5843 10.6056C17.1749 11.5475 17.484 12.6386 17.4752 13.7503C17.4752 13.9713 17.563 14.1833 17.7192 14.3396C17.8755 14.4959 18.0875 14.5837 18.3085 14.5837C18.5295 14.5837 18.7415 14.4959 18.8978 14.3396C19.054 14.1833 19.1418 13.9713 19.1418 13.7503C19.1486 12.4715 18.8283 11.2122 18.2114 10.092C17.5944 8.97188 16.7013 8.02809 15.6168 7.35033Z" fill="#212223"/>
</svg>
